<svg width="32" height="32" viewBox="0 0 32 32" fill="none" xmlns="http://www.w3.org/2000/svg">
<rect width="32" height="32" fill="#E5E5E5"/>
<rect width="697" height="582" transform="translate(-93 -262)" fill="black"/>
<path d="M9.95085 10.5468C9.74878 10.4631 9.54804 10.3858 9.34893 10.3152C9.23738 10.2756 9.12568 10.2379 9.01396 10.2022C9.01907 10.7048 9.10332 11.3233 9.31182 12.07C9.92529 12.325 10.5624 12.6523 11.2097 13.0488C10.7164 12.2136 10.2947 11.3747 9.95085 10.5468Z" fill="#FCFCFC"/>
<path d="M18.5851 20.9381C19.0441 21.7889 19.4093 22.6261 19.6745 23.4247C20.4783 23.7042 21.0781 23.7864 21.5197 23.7678C21.472 23.5842 21.4198 23.4003 21.3633 23.2163C21.2763 22.9335 21.1784 22.6472 21.0698 22.3583C20.2445 21.9745 19.411 21.4977 18.5851 20.9381Z" fill="#FCFCFC"/>
<path d="M3.16908 11.072C3.63948 10.5649 4.20407 10.2203 4.83072 10.0133C4.82346 10.5896 4.87267 11.1739 4.96544 11.7527C4.74961 11.8692 4.56279 12.0138 4.40584 12.183C3.59774 13.0541 3.39638 14.7441 4.11655 17.0447C4.81837 19.2867 6.33134 21.8618 8.50214 24.202C10.6751 26.5446 13.0526 28.1618 15.1013 28.9002C17.1948 29.6548 18.6668 29.4184 19.4383 28.5664L19.4417 28.5627L19.4451 28.5591C19.6495 28.3386 19.8158 28.0662 19.9389 27.745C20.5074 27.846 21.0848 27.8968 21.6549 27.8811C21.4696 28.5536 21.1542 29.1595 20.6852 29.6663C19.2172 31.2836 16.8405 31.2821 14.5254 30.4475C12.1638 29.5963 9.57103 27.7985 7.26538 25.313C4.95755 22.8251 3.30271 20.0423 2.51621 17.5298C1.74806 15.0759 1.73786 12.6149 3.16908 11.072Z" fill="#FCFCFC"/>
<path d="M8.87319 5.65284C8.26882 5.85898 7.71954 6.20082 7.26134 6.69477C5.84339 8.26064 5.82698 10.7275 6.58308 13.1957C7.35552 15.7172 8.99723 18.5016 11.3064 20.991C13.6121 23.4765 16.2048 25.2743 18.5664 26.1255C20.8816 26.9601 23.2583 26.9616 24.7263 25.3443C25.214 24.8172 25.5357 24.1828 25.7175 23.4779C25.1505 23.4909 24.5765 23.4386 24.0115 23.3368C23.8859 23.6956 23.7086 23.9972 23.4861 24.2371L23.4827 24.2407L23.4794 24.2444C22.7078 25.0964 21.2358 25.3328 19.1424 24.5782C17.0936 23.8398 14.7161 22.2225 12.5432 19.88C10.3737 17.5413 8.87493 14.9678 8.18636 12.7201C7.4824 10.4221 7.68627 8.70647 8.50485 7.79845C8.65025 7.64246 8.82085 7.50794 9.01609 7.39752C8.92004 6.81754 8.86788 6.23125 8.87319 5.65284Z" fill="#FCFCFC"/>
<path d="M23.6767 18.9875C22.9409 16.8398 21.4911 14.4243 19.4444 12.218C17.4563 10.0748 15.2962 8.53781 13.3724 7.72055C13.1539 6.9633 13.0651 6.34117 13.057 5.83974C13.1792 5.87945 13.3015 5.92156 13.4235 5.96597C15.7832 6.82441 18.3752 8.62121 20.6812 11.1071C22.9903 13.5963 24.6318 16.3806 25.4043 18.8943C25.4526 19.0516 25.4978 19.2089 25.5397 19.3659C25.0883 19.3727 24.4817 19.2771 23.6767 18.9875Z" fill="#FCFCFC"/>
<path fill-rule="evenodd" clip-rule="evenodd" d="M17.4869 1.54738C19.8617 2.39024 22.4697 4.17265 24.7781 6.66127C27.0873 9.15054 28.7288 11.9348 29.5013 14.4485C30.2556 16.9032 30.2481 19.3587 28.8232 20.8986C27.3552 22.5158 24.9785 22.5143 22.6634 21.6798C20.3024 20.8287 17.7103 19.0316 15.4051 16.547C13.0685 14.058 11.4129 11.274 10.6331 8.75996C9.87077 6.30212 9.87843 3.84435 11.3071 2.30423C12.7751 0.721636 15.1604 0.721641 17.4869 1.54738ZM16.9188 3.09748C14.8077 2.3482 13.3151 2.58372 12.5438 3.41517C11.7332 4.28909 11.5224 5.98229 12.2347 8.27892C12.9294 10.5187 14.4409 13.092 16.6367 15.4306L16.6402 15.4342C18.8131 17.7768 21.1906 19.394 23.2393 20.1325C25.3328 20.887 26.8048 20.6507 27.5764 19.7986L27.5797 19.7949L27.5831 19.7913C28.3941 18.917 28.6045 17.2234 27.8984 14.9255C27.2099 12.6848 25.7109 10.111 23.5414 7.77222C21.3713 5.43276 18.9817 3.82963 16.9188 3.09748Z" fill="#FCFCFC"/>
</svg>
