<svg width="256" height="256" viewBox="0 0 256 256" fill="none" xmlns="http://www.w3.org/2000/svg">
<rect width="256" height="256" fill="#E5E5E5"/>
<rect width="697" height="582" transform="translate(-240 -200)" fill="black"/>
<path d="M77.1624 82.557C75.4809 81.8592 73.8105 81.2152 72.1536 80.6264C71.2253 80.2964 70.2959 79.9823 69.3662 79.6847C69.4087 83.8731 70.1097 89.0271 71.8448 95.2503C76.9497 97.375 82.251 100.103 87.6379 103.406C83.5332 96.4466 80.0237 89.4556 77.1624 82.557Z" fill="#FCFCFC"/>
<path d="M149.011 169.15C152.831 176.241 155.87 183.218 158.077 189.873C164.766 192.202 169.757 192.887 173.432 192.732C173.035 191.202 172.6 189.669 172.13 188.136C171.407 185.779 170.592 183.393 169.688 180.986C162.82 177.788 155.885 173.814 149.011 169.15Z" fill="#FCFCFC"/>
<path d="M20.7284 86.9334C24.6428 82.7075 29.341 79.8357 34.5556 78.1105C34.4952 82.9131 34.9047 87.7823 35.6767 92.6056C33.8807 93.577 32.3261 94.7813 31.02 96.1913C24.2955 103.451 22.6198 117.534 28.6127 136.706C34.4529 155.389 47.043 176.849 65.1071 196.35C83.1894 215.871 102.973 229.348 120.022 235.502C137.442 241.79 149.692 239.82 156.112 232.72L156.14 232.689L156.168 232.659C157.869 230.822 159.253 228.551 160.277 225.875C165.008 226.717 169.812 227.14 174.556 227.009C173.015 232.613 170.39 237.663 166.488 241.886C154.272 255.363 134.495 255.35 115.229 248.396C95.5771 241.302 74.0018 226.321 54.8155 205.608C35.6111 184.876 21.8404 161.686 15.2956 140.748C8.90352 120.299 8.81859 99.7909 20.7284 86.9334Z" fill="#FCFCFC"/>
<path d="M68.1947 41.7737C63.1655 43.4915 58.5947 46.3402 54.7818 50.4564C42.9825 63.5053 42.8459 84.0628 49.1377 104.631C55.5656 125.643 69.227 148.847 88.4426 169.591C107.629 190.304 129.204 205.286 148.856 212.379C168.122 219.334 187.899 219.346 200.115 205.869C204.174 201.476 206.85 196.19 208.364 190.315C203.645 190.424 198.869 189.988 194.167 189.14C193.122 192.13 191.647 194.643 189.795 196.642L189.767 196.673L189.739 196.703C183.319 203.804 171.069 205.774 153.649 199.485C136.6 193.331 116.817 179.855 98.7342 160.333C80.6813 140.844 68.2092 119.398 62.4793 100.667C56.6214 81.5177 58.3179 67.2206 65.1296 59.6538C66.3396 58.3538 67.7592 57.2328 69.3839 56.3126C68.5846 51.4795 68.1505 46.5938 68.1947 41.7737Z" fill="#FCFCFC"/>
<path d="M191.381 152.896C185.258 134.998 173.193 114.87 156.162 96.4833C139.619 78.6232 121.643 65.8151 105.635 59.0045C103.817 52.6942 103.077 47.5097 103.01 43.3312C104.027 43.6621 105.044 44.013 106.06 44.383C125.696 51.5367 147.265 66.5101 166.454 87.2254C185.669 107.969 199.329 131.171 205.757 152.119C206.159 153.43 206.535 154.74 206.884 156.049C203.127 156.106 198.08 155.309 191.381 152.896Z" fill="#FCFCFC"/>
<path fill-rule="evenodd" clip-rule="evenodd" d="M139.873 7.56149C159.635 14.5853 181.337 29.4388 200.547 50.1773C219.762 70.9212 233.422 94.1231 239.85 115.071C246.127 135.527 246.065 155.989 234.207 168.822C221.991 182.298 202.214 182.286 182.949 175.331C163.302 168.239 141.732 153.264 122.55 132.559C103.106 111.817 89.3286 88.6168 82.8397 67.6664C76.496 47.1843 76.5598 26.7029 88.4482 13.8686C100.664 0.680303 120.513 0.680338 139.873 7.56149ZM135.146 20.479C117.578 14.235 105.158 16.1977 98.7398 23.1264C91.9939 30.4091 90.2397 44.519 96.1674 63.6577C101.948 82.3228 114.526 103.767 132.799 123.255L132.827 123.285C150.909 142.806 170.693 156.283 187.742 162.437C205.162 168.725 217.411 166.755 223.832 159.655L223.86 159.624L223.888 159.594C230.637 152.308 232.388 138.195 226.512 119.046C220.782 100.373 208.309 78.9252 190.255 59.4351C172.197 39.9397 152.312 26.5802 135.146 20.479Z" fill="#FCFCFC"/>
</svg>
