<svg width="156" height="34" viewBox="0 0 156 34" fill="none" xmlns="http://www.w3.org/2000/svg">
<path d="M74.7358 8.98879H77.5536V26.366H74.7358V8.98879ZM74.7358 5.06489H77.5536V7.80539H74.7358V5.06489Z" fill="#FCFCFC"/>
<path d="M80.5593 8.99664H83.2206V11.4569C84.3478 9.3392 86.1011 8.40495 88.6998 8.40495C91.2985 8.40495 93.5841 9.74405 94.2416 11.924C94.5234 12.6714 94.586 13.6057 94.586 15.3185V26.3739H91.7682V15.1939C91.7682 12.3911 90.5784 10.9897 88.0423 10.9897C85.5062 10.9897 83.3459 13.1385 83.3459 16.4396L83.2833 26.3739H80.4967L80.5593 8.99664Z" fill="#FCFCFC"/>
<path d="M96.9966 4.42051C96.9966 1.49317 98.3429 0.154063 101.286 0.154063H104.667V2.83227C101.599 2.83227 99.8145 2.48971 99.8145 5.60391V8.99838H103.885V11.334H99.8145V26.3756H96.9966V4.42051Z" fill="#FCFCFC"/>
<path d="M106.139 0.305099H108.957V26.3709H106.139V0.305099Z" fill="#FCFCFC"/>
<path d="M149.597 8.99561V3.98175H152.415V8.99561H155.733V11.3313H152.415V21.9818C152.415 23.6323 152.947 24.1618 154.544 24.0995L155.608 24.0372V26.4351L153.73 26.5597C150.849 26.5597 149.534 25.5631 149.534 23.2898V11.269H146.779V8.99561H149.597Z" fill="#FCFCFC"/>
<path d="M9.34565 10.1833C9.13355 10.094 8.92284 10.0116 8.71385 9.93617C8.59675 9.89394 8.47951 9.85373 8.36224 9.81564C8.36761 10.3518 8.45604 11.0115 8.6749 11.808C9.31882 12.08 9.98752 12.4292 10.667 12.852C10.1493 11.9612 9.70657 11.0663 9.34565 10.1833Z" fill="#FCFCFC"/>
<path d="M18.4086 21.2673C18.8904 22.1749 19.2737 23.0679 19.5522 23.9197C20.3958 24.2178 21.0254 24.3055 21.489 24.2856C21.4389 24.0898 21.3841 23.8936 21.3248 23.6974C21.2335 23.3957 21.1307 23.0903 21.0167 22.7822C20.1504 22.3728 19.2756 21.8642 18.4086 21.2673Z" fill="#FCFCFC"/>
<path d="M2.22713 10.7435C2.72089 10.2026 3.31351 9.83497 3.97128 9.61415C3.96366 10.2289 4.01531 10.8521 4.11269 11.4695C3.88615 11.5939 3.69005 11.748 3.5253 11.9285C2.67708 12.8577 2.46571 14.6603 3.22165 17.1143C3.95832 19.5058 5.54642 22.2526 7.82501 24.7488C10.1059 27.2475 12.6014 28.9725 14.7519 29.7603C16.9493 30.5652 18.4944 30.313 19.3043 29.4042L19.3078 29.4002L19.3113 29.3963C19.5259 29.1612 19.7005 28.8706 19.8297 28.528C20.4264 28.6358 21.0324 28.6899 21.6308 28.6732C21.4364 29.3905 21.1053 30.0368 20.6131 30.5774C19.0721 32.3025 16.5775 32.3009 14.1473 31.4107C11.6685 30.5027 8.94697 28.5851 6.52684 25.9338C4.10441 23.2801 2.3674 20.3118 1.54185 17.6318C0.735553 15.0143 0.724839 12.3892 2.22713 10.7435Z" fill="#FCFCFC"/>
<path d="M8.21448 4.96303C7.5801 5.18291 7.00354 5.54754 6.52259 6.07442C5.03424 7.74468 5.01701 10.376 5.81065 13.0087C6.62145 15.6983 8.34468 18.6684 10.7685 21.3237C13.1887 23.9749 15.9101 25.8926 18.389 26.8006C20.8192 27.6907 23.3139 27.6923 24.8548 25.9672C25.3667 25.405 25.7044 24.7283 25.8952 23.9764C25.3 23.9903 24.6976 23.9345 24.1045 23.8259C23.9727 24.2086 23.7866 24.5303 23.553 24.7862L23.5494 24.7901L23.5459 24.794C22.7361 25.7029 21.191 25.955 18.9936 25.1501C16.8431 24.3624 14.3476 22.6374 12.0667 20.1387C9.78951 17.644 8.2163 14.8989 7.49354 12.5014C6.75463 10.0503 6.96863 8.22024 7.82785 7.25168C7.98047 7.08529 8.15954 6.9418 8.36447 6.82402C8.26365 6.20538 8.2089 5.58 8.21448 4.96303Z" fill="#FCFCFC"/>
<path d="M23.753 19.1866C22.9808 16.8958 21.4589 14.3193 19.3106 11.9659C17.2238 9.67977 14.9564 8.04034 12.9371 7.16858C12.7078 6.36085 12.6145 5.69725 12.606 5.16239C12.7343 5.20475 12.8626 5.24967 12.9908 5.29703C15.4676 6.2127 18.1884 8.12929 20.6088 10.7809C23.0326 13.4361 24.7556 16.4059 25.5664 19.0873C25.6172 19.255 25.6646 19.4228 25.7086 19.5903C25.2347 19.5976 24.598 19.4955 23.753 19.1866Z" fill="#FCFCFC"/>
<path fill-rule="evenodd" clip-rule="evenodd" d="M17.256 0.58387C19.7487 1.48292 22.4861 3.38416 24.9092 6.03869C27.333 8.69391 29.056 11.6638 29.8669 14.3451C30.6586 16.9634 30.6508 19.5826 29.1551 21.2252C27.6142 22.9502 25.1195 22.9486 22.6894 22.0584C20.2112 21.1506 17.4904 19.2337 15.0707 16.5835C12.6182 13.9286 10.8803 10.959 10.0618 8.2773C9.26159 5.6556 9.26964 3.03397 10.7692 1.39118C12.3102 -0.296921 14.8139 -0.296917 17.256 0.58387ZM16.6596 2.23731C14.4437 1.43808 12.877 1.68931 12.0674 2.57618C11.2165 3.50836 10.9952 5.31444 11.7429 7.76418C12.4721 10.1533 14.0587 12.8981 16.3635 15.3926L16.3671 15.3965C18.648 17.8952 21.1435 19.6202 23.294 20.408C25.4914 21.2129 27.0365 20.9607 27.8464 20.0519L27.8499 20.0479L27.8534 20.044C28.7047 19.1114 28.9256 17.3049 28.1844 14.8539C27.4617 12.4638 25.8883 9.71842 23.611 7.2237C21.3331 4.72828 18.8249 3.01827 16.6596 2.23731Z" fill="#FCFCFC"/>
<path fill-rule="evenodd" clip-rule="evenodd" d="M62.8795 8.32301C61.0279 8.32301 59.218 8.86912 57.6784 9.89227C56.1389 10.9154 54.939 12.3697 54.2305 14.0711C53.5219 15.7726 53.3365 17.6448 53.6978 19.451C54.059 21.2573 54.9506 22.9164 56.2598 24.2187C57.5691 25.5209 59.2371 26.4077 61.0531 26.767C62.8691 27.1263 64.7514 26.9419 66.462 26.2371C68.1726 25.5324 69.6347 24.3389 70.6633 22.8076C71.692 21.2764 72.2411 19.4761 72.2411 17.6345C72.2452 16.4105 72.0059 15.1978 71.5369 14.0663C71.0679 12.9347 70.3785 11.9066 69.5083 11.0411C68.6382 10.1756 67.6046 9.48991 66.4669 9.02342C65.3292 8.55693 64.11 8.3189 62.8795 8.32301ZM62.8795 24.2366C61.568 24.2304 60.2878 23.838 59.2004 23.1088C58.1129 22.3796 57.267 21.3464 56.7695 20.1395C56.2719 18.9326 56.1449 17.6061 56.4045 16.3275C56.6642 15.0488 57.2988 13.8754 58.2283 12.9552C59.1578 12.035 60.3406 11.4093 61.6273 11.157C62.914 10.9048 64.247 11.0374 65.4581 11.538C66.6691 12.0386 67.7039 12.8848 68.4319 13.9698C69.1599 15.0548 69.5484 16.33 69.5484 17.6345C69.5484 18.5041 69.3757 19.3652 69.0402 20.1682C68.7047 20.9712 68.2129 21.7004 67.5932 22.3139C66.9736 22.9274 66.2381 23.413 65.4292 23.743C64.6203 24.0729 63.7538 24.2407 62.8795 24.2366Z" fill="#FCFCFC"/>
<path fill-rule="evenodd" clip-rule="evenodd" d="M119.884 8.27986C118.184 8.27811 116.516 8.7417 115.062 9.6199C113.609 10.4981 112.427 11.757 111.645 13.2589C110.863 14.7607 110.511 16.4476 110.629 18.1349C110.746 19.8221 111.328 21.4447 112.311 22.825C113.294 24.2053 114.639 25.2901 116.2 25.9606C117.761 26.6311 119.478 26.8615 121.162 26.6265C122.846 26.3916 124.432 25.7004 125.748 24.6286C127.063 23.5568 128.056 22.1457 128.619 20.5498H125.708C125.06 21.777 124.038 22.7679 122.787 23.3795C121.537 23.9911 120.124 24.1919 118.751 23.9528C117.379 23.7138 116.118 23.0472 115.151 22.0494C114.184 21.0515 113.561 19.774 113.372 18.401H129.089C129.14 18.1028 129.161 17.8002 129.152 17.4979C129.156 16.2862 128.919 15.0857 128.455 13.9654C127.99 12.8452 127.308 11.8274 126.446 10.9706C125.585 10.1138 124.562 9.43495 123.436 8.97316C122.309 8.51137 121.102 8.27574 119.884 8.27986ZM113.528 15.7228C113.91 14.3413 114.737 13.1227 115.882 12.2541C117.028 11.3856 118.428 10.9151 119.868 10.9151C121.309 10.9151 122.709 11.3856 123.855 12.2541C125 13.1227 125.827 14.3413 126.209 15.7228H113.528Z" fill="#FCFCFC"/>
<path fill-rule="evenodd" clip-rule="evenodd" d="M145.621 24.3504C143.949 25.859 141.772 26.692 139.515 26.686C138.034 26.6962 136.573 26.3509 135.255 25.6794C133.937 25.0078 132.801 24.0299 131.944 22.8287C131.087 21.6274 130.534 20.2382 130.332 18.779C130.13 17.3199 130.285 15.8338 130.784 14.4469C131.283 13.06 132.111 11.8133 133.197 10.8125C134.284 9.81175 135.597 9.08652 137.026 8.69837C138.454 8.31022 139.956 8.2706 141.403 8.58288C142.85 8.89516 144.2 9.55013 145.339 10.4922L143.742 12.6098C142.782 11.7974 141.607 11.2778 140.358 11.1136C139.108 10.9494 137.838 11.1475 136.699 11.6841C135.56 12.2208 134.601 13.0731 133.938 14.1386C133.274 15.2042 132.934 16.4377 132.958 17.691C132.982 18.9442 133.37 20.1638 134.074 21.2033C134.778 22.2428 135.769 23.0579 136.928 23.5507C138.087 24.0436 139.364 24.1931 140.606 23.9814C141.848 23.7697 143.002 23.2057 143.93 22.3573L145.621 24.3504Z" fill="#FCFCFC"/>
<path fill-rule="evenodd" clip-rule="evenodd" d="M52.7355 24.4188C51.6262 25.4172 50.289 26.1316 48.8396 26.5002C47.3902 26.8687 45.8723 26.8804 44.4174 26.5342C42.9624 26.1879 41.6143 25.4941 40.4896 24.5129C39.3649 23.5318 38.4976 22.2927 37.9627 20.903C37.4279 19.5134 37.2416 18.015 37.4201 16.5376C37.5985 15.0603 38.1363 13.6484 38.9869 12.4243C39.8374 11.2002 40.9751 10.2007 42.3014 9.51241C43.6278 8.82411 45.1028 8.46772 46.5988 8.47409C48.7267 8.46434 50.7895 9.20342 52.4224 10.5606L50.8569 12.6783C49.6641 11.6802 48.1575 11.1293 46.5988 11.1212C45.5342 11.1197 44.4853 11.3765 43.5431 11.8695C42.6008 12.3625 41.7938 13.0767 41.1919 13.9501C40.59 14.8236 40.2115 15.8299 40.0891 16.8818C39.9668 17.9337 40.1043 18.9994 40.4898 19.9865C40.8752 20.9735 41.497 21.8521 42.3012 22.5461C43.1053 23.24 44.0675 23.7283 45.1044 23.9687C46.1412 24.209 47.2213 24.1941 48.251 23.9252C49.2808 23.6563 50.229 23.1416 51.0134 22.4257L52.7355 24.4188Z" fill="#FCFCFC"/>
</svg>
